{
    "asset" : {
        "generator" : "Khronos glTF Blender I/O v1.7.33",
        "version" : "2.0"
    },
    "scene" : 0,
    "scenes" : [
        {
            "name" : "Scene",
            "nodes" : [
                0,
                1,
                2,
                3,
                4,
                5,
                6,
                7,
                8,
                9
            ]
        }
    ],
    "nodes" : [
        {
            "mesh" : 0,
            "name" : "Plane",
            "scale" : [
                6.558882236480713,
                6.558882236480713,
                13.046774864196777
            ]
        },
        {
            "mesh" : 1,
            "name" : "Plane.002",
            "rotation" : [
                0.7071068286895752,
                0,
                0,
                0.7071068286895752
            ],
            "scale" : [
                1.950027585029602,
                1.950027585029602,
                3.8789494037628174
            ]
        },
        {
            "mesh" : 2,
            "name" : "Plane.003",
            "rotation" : [
                0,
                0,
                -0.7071067690849304,
                0.7071068286895752
            ],
            "scale" : [
                3.0133399963378906,
                4.398094654083252,
                8.748586654663086
            ]
        },
        {
            "mesh" : 3,
            "name" : "Cube.003",
            "scale" : [
                1.0702176094055176,
                1.9118096828460693,
                1.0702176094055176
            ]
        },
        {
            "mesh" : 4,
            "name" : "Cube.004",
            "rotation" : [
                0.2517411410808563,
                0,
                0,
                0.9677947163581848
            ],
            "scale" : [
                1,
                0.13706104457378387,
                5.318349838256836
            ],
            "translation" : [
                -0.3618590235710144,
                0,
                3.752056360244751
            ]
        },
        {
            "mesh" : 5,
            "name" : "Cube.005",
            "scale" : [
                8.252645492553711,
                0.18204593658447266,
                8.252645492553711
            ]
        },
        {
            "mesh" : 6,
            "name" : "Plane.005",
            "rotation" : [
                0.7071068286895752,
                0,
                0,
                0.7071068286895752
            ],
            "scale" : [
                1.950027585029602,
                1.950027585029602,
                3.8789494037628174
            ]
        },
        {
            "mesh" : 7,
            "name" : "Cube.006",
            "rotation" : [
                -0.13384638726711273,
                -0.7196225523948669,
                -0.0751105397939682,
                0.6771904826164246
            ],
            "scale" : [
                1,
                0.13706104457378387,
                5.318349838256836
            ],
            "translation" : [
                6.892333984375,
                5.8572564125061035,
                -24.101741790771484
            ]
        },
        {
            "mesh" : 8,
            "name" : "Plane.006",
            "rotation" : [
                0,
                0,
                -0.7071067690849304,
                0.7071068286895752
            ],
            "scale" : [
                3.0133399963378906,
                4.398094654083252,
                8.748586654663086
            ],
            "translation" : [
                0,
                7.523313522338867,
                0
            ]
        },
        {
            "mesh" : 9,
            "name" : "Cube.007",
            "rotation" : [
                0,
                0,
                -0.13028955459594727,
                0.9914759993553162
            ],
            "scale" : [
                8.252645492553711,
                0.18204593658447266,
                8.252645492553711
            ],
            "translation" : [
                52.802310943603516,
                2.7402420043945312,
                -12.914528846740723
            ]
        }
    ],
    "meshes" : [
        {
            "name" : "Plane",
            "primitives" : [
                {
                    "attributes" : {
                        "POSITION" : 0,
                        "NORMAL" : 1,
                        "TEXCOORD_0" : 2
                    },
                    "indices" : 3
                }
            ]
        },
        {
            "name" : "Plane.004",
            "primitives" : [
                {
                    "attributes" : {
                        "POSITION" : 4,
                        "NORMAL" : 5,
                        "TEXCOORD_0" : 6
                    },
                    "indices" : 7
                }
            ]
        },
        {
            "name" : "Plane.006",
            "primitives" : [
                {
                    "attributes" : {
                        "POSITION" : 8,
                        "NORMAL" : 9,
                        "TEXCOORD_0" : 10
                    },
                    "indices" : 11
                }
            ]
        },
        {
            "name" : "Cube",
            "primitives" : [
                {
                    "attributes" : {
                        "POSITION" : 12,
                        "NORMAL" : 13,
                        "TEXCOORD_0" : 14
                    },
                    "indices" : 15
                }
            ]
        },
        {
            "name" : "Cube.013",
            "primitives" : [
                {
                    "attributes" : {
                        "POSITION" : 16,
                        "NORMAL" : 17,
                        "TEXCOORD_0" : 18
                    },
                    "indices" : 19
                }
            ]
        },
        {
            "name" : "Cube.014",
            "primitives" : [
                {
                    "attributes" : {
                        "POSITION" : 20,
                        "NORMAL" : 21,
                        "TEXCOORD_0" : 22
                    },
                    "indices" : 23
                }
            ]
        },
        {
            "name" : "Plane.008",
            "primitives" : [
                {
                    "attributes" : {
                        "POSITION" : 24,
                        "NORMAL" : 25,
                        "TEXCOORD_0" : 26
                    },
                    "indices" : 27
                }
            ]
        },
        {
            "name" : "Cube.016",
            "primitives" : [
                {
                    "attributes" : {
                        "POSITION" : 28,
                        "NORMAL" : 29,
                        "TEXCOORD_0" : 30
                    },
                    "indices" : 31
                }
            ]
        },
        {
            "name" : "Plane.010",
            "primitives" : [
                {
                    "attributes" : {
                        "POSITION" : 32,
                        "NORMAL" : 33,
                        "TEXCOORD_0" : 34
                    },
                    "indices" : 35
                }
            ]
        },
        {
            "name" : "Cube.017",
            "primitives" : [
                {
                    "attributes" : {
                        "POSITION" : 36,
                        "NORMAL" : 37,
                        "TEXCOORD_0" : 38
                    },
                    "indices" : 39
                }
            ]
        }
    ],
    "accessors" : [
        {
            "bufferView" : 0,
            "componentType" : 5126,
            "count" : 11,
            "max" : [
                10.726640701293945,
                -8.881784197001252e-16,
                0
            ],
            "min" : [
                3.725290298461914e-09,
                -8.881784197001252e-16,
                -4.532482624053955
            ],
            "type" : "VEC3"
        },
        {
            "bufferView" : 1,
            "componentType" : 5126,
            "count" : 11,
            "type" : "VEC3"
        },
        {
            "bufferView" : 2,
            "componentType" : 5126,
            "count" : 11,
            "type" : "VEC2"
        },
        {
            "bufferView" : 3,
            "componentType" : 5123,
            "count" : 24,
            "type" : "SCALAR"
        },
        {
            "bufferView" : 4,
            "componentType" : 5126,
            "count" : 17,
            "max" : [
                34.935848236083984,
                -0.04732735455036163,
                3.199453431079746e-07
            ],
            "min" : [
                -0.08484074473381042,
                -13.116395950317383,
                -3.6536405086517334
            ],
            "type" : "VEC3"
        },
        {
            "bufferView" : 5,
            "componentType" : 5126,
            "count" : 17,
            "type" : "VEC3"
        },
        {
            "bufferView" : 6,
            "componentType" : 5126,
            "count" : 17,
            "type" : "VEC2"
        },
        {
            "bufferView" : 7,
            "componentType" : 5123,
            "count" : 27,
            "type" : "SCALAR"
        },
        {
            "bufferView" : 8,
            "componentType" : 5126,
            "count" : 56,
            "max" : [
                0.2901560962200165,
                0.02015882357954979,
                0.05682854726910591
            ],
            "min" : [
                -4.703182220458984,
                0.020158670842647552,
                -3.0170655250549316
            ],
            "type" : "VEC3"
        },
        {
            "bufferView" : 9,
            "componentType" : 5126,
            "count" : 56,
            "type" : "VEC3"
        },
        {
            "bufferView" : 10,
            "componentType" : 5126,
            "count" : 56,
            "type" : "VEC2"
        },
        {
            "bufferView" : 11,
            "componentType" : 5123,
            "count" : 84,
            "type" : "SCALAR"
        },
        {
            "bufferView" : 12,
            "componentType" : 5126,
            "count" : 60,
            "max" : [
                1.582275152206421,
                1.8965504169464111,
                2.0081276893615723
            ],
            "min" : [
                -0.4177248477935791,
                -0.5063836574554443,
                -0.05863988399505615
            ],
            "type" : "VEC3"
        },
        {
            "bufferView" : 13,
            "componentType" : 5126,
            "count" : 60,
            "type" : "VEC3"
        },
        {
            "bufferView" : 14,
            "componentType" : 5126,
            "count" : 60,
            "type" : "VEC2"
        },
        {
            "bufferView" : 15,
            "componentType" : 5123,
            "count" : 108,
            "type" : "SCALAR"
        },
        {
            "bufferView" : 16,
            "componentType" : 5126,
            "count" : 36,
            "max" : [
                10.641258239746094,
                -31.441524505615234,
                -1.3336567878723145
            ],
            "min" : [
                8.641258239746094,
                -49.28734588623047,
                -4.026908874511719
            ],
            "type" : "VEC3"
        },
        {
            "bufferView" : 17,
            "componentType" : 5126,
            "count" : 36,
            "type" : "VEC3"
        },
        {
            "bufferView" : 18,
            "componentType" : 5126,
            "count" : 36,
            "type" : "VEC2"
        },
        {
            "bufferView" : 19,
            "componentType" : 5123,
            "count" : 60,
            "type" : "SCALAR"
        },
        {
            "bufferView" : 20,
            "componentType" : 5126,
            "count" : 84,
            "max" : [
                5.479057312011719,
                27.173112869262695,
                0.009931586682796478
            ],
            "min" : [
                1.2443125247955322,
                25.173112869262695,
                -3.8114736080169678
            ],
            "type" : "VEC3"
        },
        {
            "bufferView" : 21,
            "componentType" : 5126,
            "count" : 84,
            "type" : "VEC3"
        },
        {
            "bufferView" : 22,
            "componentType" : 5126,
            "count" : 84,
            "type" : "VEC2"
        },
        {
            "bufferView" : 23,
            "componentType" : 5123,
            "count" : 156,
            "type" : "SCALAR"
        },
        {
            "bufferView" : 24,
            "componentType" : 5126,
            "count" : 113,
            "max" : [
                35.089210510253906,
                -12.722430229187012,
                6.884087042635656e-07
            ],
            "min" : [
                -0.3345135450363159,
                -29.733810424804688,
                -3.6536405086517334
            ],
            "type" : "VEC3"
        },
        {
            "bufferView" : 25,
            "componentType" : 5126,
            "count" : 113,
            "type" : "VEC3"
        },
        {
            "bufferView" : 26,
            "componentType" : 5126,
            "count" : 113,
            "type" : "VEC2"
        },
        {
            "bufferView" : 27,
            "componentType" : 5123,
            "count" : 207,
            "type" : "SCALAR"
        },
        {
            "bufferView" : 28,
            "componentType" : 5126,
            "count" : 36,
            "max" : [
                1,
                2.550508737564087,
                0.6271795630455017
            ],
            "min" : [
                -1.2686083316802979,
                -3.2554266452789307,
                -1.0205268859863281
            ],
            "type" : "VEC3"
        },
        {
            "bufferView" : 29,
            "componentType" : 5126,
            "count" : 36,
            "type" : "VEC3"
        },
        {
            "bufferView" : 30,
            "componentType" : 5126,
            "count" : 36,
            "type" : "VEC2"
        },
        {
            "bufferView" : 31,
            "componentType" : 5123,
            "count" : 54,
            "type" : "SCALAR"
        },
        {
            "bufferView" : 32,
            "componentType" : 5126,
            "count" : 124,
            "max" : [
                4.280016899108887,
                1.1564685106277466,
                -1.5706427097320557
            ],
            "min" : [
                -2.2065131664276123,
                0.020158670842647552,
                -3.0170655250549316
            ],
            "type" : "VEC3"
        },
        {
            "bufferView" : 33,
            "componentType" : 5126,
            "count" : 124,
            "type" : "VEC3"
        },
        {
            "bufferView" : 34,
            "componentType" : 5126,
            "count" : 124,
            "type" : "VEC2"
        },
        {
            "bufferView" : 35,
            "componentType" : 5123,
            "count" : 186,
            "type" : "SCALAR"
        },
        {
            "bufferView" : 36,
            "componentType" : 5126,
            "count" : 24,
            "max" : [
                0.990727424621582,
                0,
                0.450680136680603
            ],
            "min" : [
                -0.9907283782958984,
                -1.7008804082870483,
                -0.4506802558898926
            ],
            "type" : "VEC3"
        },
        {
            "bufferView" : 37,
            "componentType" : 5126,
            "count" : 24,
            "type" : "VEC3"
        },
        {
            "bufferView" : 38,
            "componentType" : 5126,
            "count" : 24,
            "type" : "VEC2"
        },
        {
            "bufferView" : 39,
            "componentType" : 5123,
            "count" : 36,
            "type" : "SCALAR"
        }
    ],
    "bufferViews" : [
        {
            "buffer" : 0,
            "byteLength" : 132,
            "byteOffset" : 0
        },
        {
            "buffer" : 0,
            "byteLength" : 132,
            "byteOffset" : 132
        },
        {
            "buffer" : 0,
            "byteLength" : 88,
            "byteOffset" : 264
        },
        {
            "buffer" : 0,
            "byteLength" : 48,
            "byteOffset" : 352
        },
        {
            "buffer" : 0,
            "byteLength" : 204,
            "byteOffset" : 400
        },
        {
            "buffer" : 0,
            "byteLength" : 204,
            "byteOffset" : 604
        },
        {
            "buffer" : 0,
            "byteLength" : 136,
            "byteOffset" : 808
        },
        {
            "buffer" : 0,
            "byteLength" : 54,
            "byteOffset" : 944
        },
        {
            "buffer" : 0,
            "byteLength" : 672,
            "byteOffset" : 1000
        },
        {
            "buffer" : 0,
            "byteLength" : 672,
            "byteOffset" : 1672
        },
        {
            "buffer" : 0,
            "byteLength" : 448,
            "byteOffset" : 2344
        },
        {
            "buffer" : 0,
            "byteLength" : 168,
            "byteOffset" : 2792
        },
        {
            "buffer" : 0,
            "byteLength" : 720,
            "byteOffset" : 2960
        },
        {
            "buffer" : 0,
            "byteLength" : 720,
            "byteOffset" : 3680
        },
        {
            "buffer" : 0,
            "byteLength" : 480,
            "byteOffset" : 4400
        },
        {
            "buffer" : 0,
            "byteLength" : 216,
            "byteOffset" : 4880
        },
        {
            "buffer" : 0,
            "byteLength" : 432,
            "byteOffset" : 5096
        },
        {
            "buffer" : 0,
            "byteLength" : 432,
            "byteOffset" : 5528
        },
        {
            "buffer" : 0,
            "byteLength" : 288,
            "byteOffset" : 5960
        },
        {
            "buffer" : 0,
            "byteLength" : 120,
            "byteOffset" : 6248
        },
        {
            "buffer" : 0,
            "byteLength" : 1008,
            "byteOffset" : 6368
        },
        {
            "buffer" : 0,
            "byteLength" : 1008,
            "byteOffset" : 7376
        },
        {
            "buffer" : 0,
            "byteLength" : 672,
            "byteOffset" : 8384
        },
        {
            "buffer" : 0,
            "byteLength" : 312,
            "byteOffset" : 9056
        },
        {
            "buffer" : 0,
            "byteLength" : 1356,
            "byteOffset" : 9368
        },
        {
            "buffer" : 0,
            "byteLength" : 1356,
            "byteOffset" : 10724
        },
        {
            "buffer" : 0,
            "byteLength" : 904,
            "byteOffset" : 12080
        },
        {
            "buffer" : 0,
            "byteLength" : 414,
            "byteOffset" : 12984
        },
        {
            "buffer" : 0,
            "byteLength" : 432,
            "byteOffset" : 13400
        },
        {
            "buffer" : 0,
            "byteLength" : 432,
            "byteOffset" : 13832
        },
        {
            "buffer" : 0,
            "byteLength" : 288,
            "byteOffset" : 14264
        },
        {
            "buffer" : 0,
            "byteLength" : 108,
            "byteOffset" : 14552
        },
        {
            "buffer" : 0,
            "byteLength" : 1488,
            "byteOffset" : 14660
        },
        {
            "buffer" : 0,
            "byteLength" : 1488,
            "byteOffset" : 16148
        },
        {
            "buffer" : 0,
            "byteLength" : 992,
            "byteOffset" : 17636
        },
        {
            "buffer" : 0,
            "byteLength" : 372,
            "byteOffset" : 18628
        },
        {
            "buffer" : 0,
            "byteLength" : 288,
            "byteOffset" : 19000
        },
        {
            "buffer" : 0,
            "byteLength" : 288,
            "byteOffset" : 19288
        },
        {
            "buffer" : 0,
            "byteLength" : 192,
            "byteOffset" : 19576
        },
        {
            "buffer" : 0,
            "byteLength" : 72,
            "byteOffset" : 19768
        }
    ],
    "buffers" : [
        {
            "byteLength" : 19840,
            "uri" : "data:application/octet-stream;base64,"
        }
    ]
}
