{
    "asset" : {
        "generator" : "Khronos glTF Blender I/O v1.7.33",
        "version" : "2.0"
    },
    "scene" : 0,
    "scenes" : [
        {
            "name" : "Scene",
            "nodes" : [
                0
            ]
        }
    ],
    "nodes" : [
        {
            "mesh" : 0,
            "name" : "barril_low",
            "translation" : [
                1.702052116394043,
                0,
                0
            ]
        }
    ],
    "materials" : [
        {
            "doubleSided" : true,
            "name" : "barrelMAT",
            "normalTexture" : {
                "index" : 0
            },
            "pbrMetallicRoughness" : {
                "baseColorTexture" : {
                    "index" : 1
                },
                "metallicFactor" : 0.7666666507720947,
                "roughnessFactor" : 0.6333333253860474
            }
        }
    ],
    "meshes" : [
        {
            "name" : "Circle.006",
            "primitives" : [
                {
                    "attributes" : {
                        "POSITION" : 0,
                        "NORMAL" : 1,
                        "TEXCOORD_0" : 2
                    },
                    "indices" : 3,
                    "material" : 0
                }
            ]
        }
    ],
    "textures" : [
        {
            "sampler" : 0,
            "source" : 0
        },
        {
            "sampler" : 0,
            "source" : 1
        }
    ],
    "images" : [
        {
            "bufferView" : 4,
            "mimeType" : "image/png",
            "name" : "barril_low_normal"
        },
        {
            "bufferView" : 5,
            "mimeType" : "image/png",
            "name" : "barril Base Color"
        }
    ],
    "accessors" : [
        {
            "bufferView" : 0,
            "componentType" : 5126,
            "count" : 390,
            "max" : [
                0.30427369475364685,
                0.8656956553459167,
                0.30427369475364685
            ],
            "min" : [
                -0.30427369475364685,
                -4.9572477678339055e-08,
                -0.30427369475364685
            ],
            "type" : "VEC3"
        },
        {
            "bufferView" : 1,
            "componentType" : 5126,
            "count" : 390,
            "type" : "VEC3"
        },
        {
            "bufferView" : 2,
            "componentType" : 5126,
            "count" : 390,
            "type" : "VEC2"
        },
        {
            "bufferView" : 3,
            "componentType" : 5123,
            "count" : 2013,
            "type" : "SCALAR"
        }
    ],
    "bufferViews" : [
        {
            "buffer" : 0,
            "byteLength" : 4680,
            "byteOffset" : 0
        },
        {
            "buffer" : 0,
            "byteLength" : 4680,
            "byteOffset" : 4680
        },
        {
            "buffer" : 0,
            "byteLength" : 3120,
            "byteOffset" : 9360
        },
        {
            "buffer" : 0,
            "byteLength" : 4026,
            "byteOffset" : 12480
        },
        {
            "buffer" : 0,
            "byteLength" : 491202,
            "byteOffset" : 16508
        },
        {
            "buffer" : 0,
            "byteLength" : 409808,
            "byteOffset" : 507712
        }
    ],
    "samplers" : [
        {
            "magFilter" : 9729,
            "minFilter" : 9987
        }
    ],
    "buffers" : [
        {
            "byteLength" : 917520,
            "uri" : "data:application/octet-stream;base64,"
        }
    ]
}
