{
    "asset" : {
        "generator" : "Khronos glTF Blender I/O v1.7.33",
        "version" : "2.0"
    },
    "scene" : 0,
    "scenes" : [
        {
            "name" : "Scene",
            "nodes" : [
                0
            ]
        }
    ],
    "nodes" : [
        {
            "mesh" : 0,
            "name" : "Wall Console.003",
            "translation" : [
                0,
                0.29697299003601074,
                0
            ]
        }
    ],
    "materials" : [
        {
            "doubleSided" : true,
            "name" : "Wall Console",
            "normalTexture" : {
                "index" : 0
            },
            "pbrMetallicRoughness" : {
                "baseColorTexture" : {
                    "index" : 1
                },
                "metallicFactor" : 0,
                "metallicRoughnessTexture" : {
                    "index" : 2
                }
            }
        }
    ],
    "meshes" : [
        {
            "name" : "Cube.012",
            "primitives" : [
                {
                    "attributes" : {
                        "POSITION" : 0,
                        "NORMAL" : 1,
                        "TEXCOORD_0" : 2
                    },
                    "indices" : 3,
                    "material" : 0
                }
            ]
        }
    ],
    "textures" : [
        {
            "sampler" : 0,
            "source" : 0
        },
        {
            "sampler" : 0,
            "source" : 1
        },
        {
            "sampler" : 0,
            "source" : 2
        }
    ],
    "images" : [
        {
            "bufferView" : 4,
            "mimeType" : "image/png",
            "name" : "Material.001_Normal_OpenGL"
        },
        {
            "bufferView" : 5,
            "mimeType" : "image/png",
            "name" : "Material.001_Mixed_AO"
        },
        {
            "bufferView" : 6,
            "mimeType" : "image/png",
            "name" : "Material.001_Glossiness"
        }
    ],
    "accessors" : [
        {
            "bufferView" : 0,
            "componentType" : 5126,
            "count" : 530,
            "max" : [
                0.5338948965072632,
                0.5727510452270508,
                0.6795313358306885
            ],
            "min" : [
                -0.5338948965072632,
                -0.28478336334228516,
                -0.017127525061368942
            ],
            "type" : "VEC3"
        },
        {
            "bufferView" : 1,
            "componentType" : 5126,
            "count" : 530,
            "type" : "VEC3"
        },
        {
            "bufferView" : 2,
            "componentType" : 5126,
            "count" : 530,
            "type" : "VEC2"
        },
        {
            "bufferView" : 3,
            "componentType" : 5123,
            "count" : 1104,
            "type" : "SCALAR"
        }
    ],
    "bufferViews" : [
        {
            "buffer" : 0,
            "byteLength" : 6360,
            "byteOffset" : 0
        },
        {
            "buffer" : 0,
            "byteLength" : 6360,
            "byteOffset" : 6360
        },
        {
            "buffer" : 0,
            "byteLength" : 4240,
            "byteOffset" : 12720
        },
        {
            "buffer" : 0,
            "byteLength" : 2208,
            "byteOffset" : 16960
        },
        {
            "buffer" : 0,
            "byteLength" : 784152,
            "byteOffset" : 19168
        },
        {
            "buffer" : 0,
            "byteLength" : 647939,
            "byteOffset" : 803320
        },
        {
            "buffer" : 0,
            "byteLength" : 761202,
            "byteOffset" : 1451260
        }
    ],
    "samplers" : [
        {
            "magFilter" : 9729,
            "minFilter" : 9987
        }
    ],
    "buffers" : [
        {
            "byteLength" : 2212464,
            "uri" : "data:application/octet-stream;base64,"
        }
    ]
}
