{
    "asset" : {
        "generator" : "Khronos glTF Blender I/O v1.7.33",
        "version" : "2.0"
    },
    "scene" : 0,
    "scenes" : [
        {
            "name" : "Scene",
            "nodes" : [
                0,
                1,
                2,
                3,
                4
            ]
        }
    ],
    "nodes" : [
        {
            "mesh" : 0,
            "name" : "room 2",
            "translation" : [
                22.776412963867188,
                2.3241138458251953,
                -61.06820297241211
            ]
        },
        {
            "mesh" : 1,
            "name" : "room 1",
            "translation" : [
                7.2026753425598145,
                2.184119701385498,
                -59.64181900024414
            ]
        },
        {
            "mesh" : 2,
            "name" : "room 3",
            "translation" : [
                38.045413970947266,
                2.0692522525787354,
                -61.06853485107422
            ]
        },
        {
            "mesh" : 3,
            "name" : "room 4",
            "translation" : [
                6.989638805389404,
                2.2645955085754395,
                -44.06810760498047
            ]
        },
        {
            "mesh" : 4,
            "name" : "room 5",
            "translation" : [
                22.776830673217773,
                2.2645955085754395,
                -45.281028747558594
            ]
        }
    ],
    "meshes" : [
        {
            "name" : "Cube.018",
            "primitives" : [
                {
                    "attributes" : {
                        "POSITION" : 0,
                        "NORMAL" : 1,
                        "TEXCOORD_0" : 2
                    },
                    "indices" : 3
                }
            ]
        },
        {
            "name" : "Cube.026",
            "primitives" : [
                {
                    "attributes" : {
                        "POSITION" : 4,
                        "NORMAL" : 5,
                        "TEXCOORD_0" : 6
                    },
                    "indices" : 7
                }
            ]
        },
        {
            "name" : "Cube.028",
            "primitives" : [
                {
                    "attributes" : {
                        "POSITION" : 8,
                        "NORMAL" : 9,
                        "TEXCOORD_0" : 10
                    },
                    "indices" : 11
                }
            ]
        },
        {
            "name" : "Cube.029",
            "primitives" : [
                {
                    "attributes" : {
                        "POSITION" : 12,
                        "NORMAL" : 13,
                        "TEXCOORD_0" : 14
                    },
                    "indices" : 15
                }
            ]
        },
        {
            "name" : "Cube.050",
            "primitives" : [
                {
                    "attributes" : {
                        "POSITION" : 16,
                        "NORMAL" : 17,
                        "TEXCOORD_0" : 18
                    },
                    "indices" : 19
                }
            ]
        }
    ],
    "accessors" : [
        {
            "bufferView" : 0,
            "componentType" : 5126,
            "count" : 689,
            "max" : [
                8.499861717224121,
                1.9372316598892212,
                8.499885559082031
            ],
            "min" : [
                -8.499909400939941,
                -1.5623947381973267,
                -8.499879837036133
            ],
            "type" : "VEC3"
        },
        {
            "bufferView" : 1,
            "componentType" : 5126,
            "count" : 689,
            "type" : "VEC3"
        },
        {
            "bufferView" : 2,
            "componentType" : 5126,
            "count" : 689,
            "type" : "VEC2"
        },
        {
            "bufferView" : 3,
            "componentType" : 5123,
            "count" : 1188,
            "type" : "SCALAR"
        },
        {
            "bufferView" : 4,
            "componentType" : 5126,
            "count" : 514,
            "max" : [
                7.073829174041748,
                2.077225923538208,
                7.073807716369629
            ],
            "min" : [
                -9.426078796386719,
                -1.4224004745483398,
                -9.426094055175781
            ],
            "type" : "VEC3"
        },
        {
            "bufferView" : 5,
            "componentType" : 5126,
            "count" : 514,
            "type" : "VEC3"
        },
        {
            "bufferView" : 6,
            "componentType" : 5126,
            "count" : 514,
            "type" : "VEC2"
        },
        {
            "bufferView" : 7,
            "componentType" : 5123,
            "count" : 864,
            "type" : "SCALAR"
        },
        {
            "bufferView" : 8,
            "componentType" : 5126,
            "count" : 429,
            "max" : [
                9.730772018432617,
                2.1920928955078125,
                8.000055313110352
            ],
            "min" : [
                -6.769136905670166,
                -1.3075335025787354,
                -7.9999895095825195
            ],
            "type" : "VEC3"
        },
        {
            "bufferView" : 9,
            "componentType" : 5126,
            "count" : 429,
            "type" : "VEC3"
        },
        {
            "bufferView" : 10,
            "componentType" : 5126,
            "count" : 429,
            "type" : "VEC2"
        },
        {
            "bufferView" : 11,
            "componentType" : 5123,
            "count" : 702,
            "type" : "SCALAR"
        },
        {
            "bufferView" : 12,
            "componentType" : 5126,
            "count" : 589,
            "max" : [
                7.287288188934326,
                1.9967501163482666,
                8.499860763549805
            ],
            "min" : [
                -9.212620735168457,
                -1.5028762817382812,
                -8.49990463256836
            ],
            "type" : "VEC3"
        },
        {
            "bufferView" : 13,
            "componentType" : 5126,
            "count" : 589,
            "type" : "VEC3"
        },
        {
            "bufferView" : 14,
            "componentType" : 5126,
            "count" : 589,
            "type" : "VEC2"
        },
        {
            "bufferView" : 15,
            "componentType" : 5123,
            "count" : 1026,
            "type" : "SCALAR"
        },
        {
            "bufferView" : 16,
            "componentType" : 5126,
            "count" : 618,
            "max" : [
                8.499860763549805,
                1.9967501163482666,
                9.212620735168457
            ],
            "min" : [
                -8.49990463256836,
                -1.5028762817382812,
                -7.287288188934326
            ],
            "type" : "VEC3"
        },
        {
            "bufferView" : 17,
            "componentType" : 5126,
            "count" : 618,
            "type" : "VEC3"
        },
        {
            "bufferView" : 18,
            "componentType" : 5126,
            "count" : 618,
            "type" : "VEC2"
        },
        {
            "bufferView" : 19,
            "componentType" : 5123,
            "count" : 1026,
            "type" : "SCALAR"
        }
    ],
    "bufferViews" : [
        {
            "buffer" : 0,
            "byteLength" : 8268,
            "byteOffset" : 0
        },
        {
            "buffer" : 0,
            "byteLength" : 8268,
            "byteOffset" : 8268
        },
        {
            "buffer" : 0,
            "byteLength" : 5512,
            "byteOffset" : 16536
        },
        {
            "buffer" : 0,
            "byteLength" : 2376,
            "byteOffset" : 22048
        },
        {
            "buffer" : 0,
            "byteLength" : 6168,
            "byteOffset" : 24424
        },
        {
            "buffer" : 0,
            "byteLength" : 6168,
            "byteOffset" : 30592
        },
        {
            "buffer" : 0,
            "byteLength" : 4112,
            "byteOffset" : 36760
        },
        {
            "buffer" : 0,
            "byteLength" : 1728,
            "byteOffset" : 40872
        },
        {
            "buffer" : 0,
            "byteLength" : 5148,
            "byteOffset" : 42600
        },
        {
            "buffer" : 0,
            "byteLength" : 5148,
            "byteOffset" : 47748
        },
        {
            "buffer" : 0,
            "byteLength" : 3432,
            "byteOffset" : 52896
        },
        {
            "buffer" : 0,
            "byteLength" : 1404,
            "byteOffset" : 56328
        },
        {
            "buffer" : 0,
            "byteLength" : 7068,
            "byteOffset" : 57732
        },
        {
            "buffer" : 0,
            "byteLength" : 7068,
            "byteOffset" : 64800
        },
        {
            "buffer" : 0,
            "byteLength" : 4712,
            "byteOffset" : 71868
        },
        {
            "buffer" : 0,
            "byteLength" : 2052,
            "byteOffset" : 76580
        },
        {
            "buffer" : 0,
            "byteLength" : 7416,
            "byteOffset" : 78632
        },
        {
            "buffer" : 0,
            "byteLength" : 7416,
            "byteOffset" : 86048
        },
        {
            "buffer" : 0,
            "byteLength" : 4944,
            "byteOffset" : 93464
        },
        {
            "buffer" : 0,
            "byteLength" : 2052,
            "byteOffset" : 98408
        }
    ],
    "buffers" : [
        {
            "byteLength" : 100460,
            "uri" : "data:application/octet-stream;base64,"
        }
    ]
}
