{
    "asset" : {
        "generator" : "Khronos glTF Blender I/O v1.7.33",
        "version" : "2.0"
    },
    "scene" : 0,
    "scenes" : [
        {
            "name" : "Scene",
            "nodes" : [
                1,
                2,
                4
            ]
        }
    ],
    "nodes" : [
        {
            "mesh" : 0,
            "name" : "ladder 1"
        },
        {
            "children" : [
                0
            ],
            "mesh" : 1,
            "name" : "Cube.003",
            "translation" : [
                0.8377586603164673,
                -4.561295509338379,
                6.767261505126953
            ]
        },
        {
            "mesh" : 2,
            "name" : "Cube.024",
            "scale" : [
                0.366604745388031,
                1,
                1
            ],
            "translation" : [
                -0.7840886116027832,
                -12.969266891479492,
                0.5235023498535156
            ]
        },
        {
            "mesh" : 3,
            "name" : "ladder 2"
        },
        {
            "children" : [
                3
            ],
            "mesh" : 4,
            "name" : "Cube",
            "translation" : [
                11.194302558898926,
                5.6809773445129395,
                44.37543487548828
            ]
        }
    ],
    "materials" : [
        {
            "doubleSided" : true,
            "name" : "ladder",
            "pbrMetallicRoughness" : {
                "baseColorFactor" : [
                    0.03768129274249077,
                    0.11863930523395538,
                    0.8000000715255737,
                    1
                ],
                "metallicFactor" : 0,
                "roughnessFactor" : 0.5
            }
        }
    ],
    "meshes" : [
        {
            "name" : "Cube.041",
            "primitives" : [
                {
                    "attributes" : {
                        "POSITION" : 0,
                        "NORMAL" : 1,
                        "TEXCOORD_0" : 2
                    },
                    "indices" : 3,
                    "material" : 0
                }
            ]
        },
        {
            "name" : "Cube.001",
            "primitives" : [
                {
                    "attributes" : {
                        "POSITION" : 4,
                        "NORMAL" : 5,
                        "TEXCOORD_0" : 6
                    },
                    "indices" : 7
                }
            ]
        },
        {
            "name" : "Cube.035",
            "primitives" : [
                {
                    "attributes" : {
                        "POSITION" : 8,
                        "NORMAL" : 9,
                        "TEXCOORD_0" : 10
                    },
                    "indices" : 11
                }
            ]
        },
        {
            "name" : "Cube.042",
            "primitives" : [
                {
                    "attributes" : {
                        "POSITION" : 12,
                        "NORMAL" : 13,
                        "TEXCOORD_0" : 14
                    },
                    "indices" : 15,
                    "material" : 0
                }
            ]
        },
        {
            "name" : "Cube.002",
            "primitives" : [
                {
                    "attributes" : {
                        "POSITION" : 16,
                        "NORMAL" : 17,
                        "TEXCOORD_0" : 18
                    },
                    "indices" : 19
                }
            ]
        }
    ],
    "accessors" : [
        {
            "bufferView" : 0,
            "componentType" : 5126,
            "count" : 24,
            "max" : [
                0.6973394155502319,
                4.561295032501221,
                1.179250717163086
            ],
            "min" : [
                -0.3873620927333832,
                -12.074823379516602,
                1.0204997062683105
            ],
            "type" : "VEC3"
        },
        {
            "bufferView" : 1,
            "componentType" : 5126,
            "count" : 24,
            "type" : "VEC3"
        },
        {
            "bufferView" : 2,
            "componentType" : 5126,
            "count" : 24,
            "type" : "VEC2"
        },
        {
            "bufferView" : 3,
            "componentType" : 5123,
            "count" : 36,
            "type" : "SCALAR"
        },
        {
            "bufferView" : 4,
            "componentType" : 5126,
            "count" : 263,
            "max" : [
                4.931421279907227,
                8.187138557434082,
                6.242891311645508
            ],
            "min" : [
                -6.763919353485107,
                -12.579410552978516,
                -7.437184810638428
            ],
            "type" : "VEC3"
        },
        {
            "bufferView" : 5,
            "componentType" : 5126,
            "count" : 263,
            "type" : "VEC3"
        },
        {
            "bufferView" : 6,
            "componentType" : 5126,
            "count" : 263,
            "type" : "VEC2"
        },
        {
            "bufferView" : 7,
            "componentType" : 5123,
            "count" : 546,
            "type" : "SCALAR"
        },
        {
            "bufferView" : 8,
            "componentType" : 5126,
            "count" : 114,
            "max" : [
                9.626091957092285,
                11.901226043701172,
                2.73266339302063
            ],
            "min" : [
                -24.106966018676758,
                -2.3873777389526367,
                -39.218238830566406
            ],
            "type" : "VEC3"
        },
        {
            "bufferView" : 9,
            "componentType" : 5126,
            "count" : 114,
            "type" : "VEC3"
        },
        {
            "bufferView" : 10,
            "componentType" : 5126,
            "count" : 114,
            "type" : "VEC2"
        },
        {
            "bufferView" : 11,
            "componentType" : 5123,
            "count" : 240,
            "type" : "SCALAR"
        },
        {
            "bufferView" : 12,
            "componentType" : 5126,
            "count" : 24,
            "max" : [
                2.7948358058929443,
                2.8824574947357178,
                18.297271728515625
            ],
            "min" : [
                0.3806183338165283,
                -23.648035049438477,
                18.075881958007812
            ],
            "type" : "VEC3"
        },
        {
            "bufferView" : 13,
            "componentType" : 5126,
            "count" : 24,
            "type" : "VEC3"
        },
        {
            "bufferView" : 14,
            "componentType" : 5126,
            "count" : 24,
            "type" : "VEC2"
        },
        {
            "bufferView" : 15,
            "componentType" : 5123,
            "count" : 36,
            "type" : "SCALAR"
        },
        {
            "bufferView" : 16,
            "componentType" : 5126,
            "count" : 96,
            "max" : [
                3.325817108154297,
                2.8824574947357178,
                18.903179168701172
            ],
            "min" : [
                -5.986073970794678,
                2.30893611907959,
                -42.180721282958984
            ],
            "type" : "VEC3"
        },
        {
            "bufferView" : 17,
            "componentType" : 5126,
            "count" : 96,
            "type" : "VEC3"
        },
        {
            "bufferView" : 18,
            "componentType" : 5126,
            "count" : 96,
            "type" : "VEC2"
        },
        {
            "bufferView" : 19,
            "componentType" : 5123,
            "count" : 192,
            "type" : "SCALAR"
        }
    ],
    "bufferViews" : [
        {
            "buffer" : 0,
            "byteLength" : 288,
            "byteOffset" : 0
        },
        {
            "buffer" : 0,
            "byteLength" : 288,
            "byteOffset" : 288
        },
        {
            "buffer" : 0,
            "byteLength" : 192,
            "byteOffset" : 576
        },
        {
            "buffer" : 0,
            "byteLength" : 72,
            "byteOffset" : 768
        },
        {
            "buffer" : 0,
            "byteLength" : 3156,
            "byteOffset" : 840
        },
        {
            "buffer" : 0,
            "byteLength" : 3156,
            "byteOffset" : 3996
        },
        {
            "buffer" : 0,
            "byteLength" : 2104,
            "byteOffset" : 7152
        },
        {
            "buffer" : 0,
            "byteLength" : 1092,
            "byteOffset" : 9256
        },
        {
            "buffer" : 0,
            "byteLength" : 1368,
            "byteOffset" : 10348
        },
        {
            "buffer" : 0,
            "byteLength" : 1368,
            "byteOffset" : 11716
        },
        {
            "buffer" : 0,
            "byteLength" : 912,
            "byteOffset" : 13084
        },
        {
            "buffer" : 0,
            "byteLength" : 480,
            "byteOffset" : 13996
        },
        {
            "buffer" : 0,
            "byteLength" : 288,
            "byteOffset" : 14476
        },
        {
            "buffer" : 0,
            "byteLength" : 288,
            "byteOffset" : 14764
        },
        {
            "buffer" : 0,
            "byteLength" : 192,
            "byteOffset" : 15052
        },
        {
            "buffer" : 0,
            "byteLength" : 72,
            "byteOffset" : 15244
        },
        {
            "buffer" : 0,
            "byteLength" : 1152,
            "byteOffset" : 15316
        },
        {
            "buffer" : 0,
            "byteLength" : 1152,
            "byteOffset" : 16468
        },
        {
            "buffer" : 0,
            "byteLength" : 768,
            "byteOffset" : 17620
        },
        {
            "buffer" : 0,
            "byteLength" : 384,
            "byteOffset" : 18388
        }
    ],
    "buffers" : [
        {
            "byteLength" : 18772,
            "uri" : "data:application/octet-stream;base64,"
        }
    ]
}
