{
    "asset" : {
        "generator" : "Khronos glTF Blender I/O v1.7.33",
        "version" : "2.0"
    },
    "scene" : 0,
    "scenes" : [
        {
            "name" : "Scene",
            "nodes" : [
                0
            ]
        }
    ],
    "nodes" : [
        {
            "mesh" : 0,
            "name" : "severedArm",
            "translation" : [
                2.143043279647827,
                0.31938672065734863,
                0.11682263016700745
            ]
        }
    ],
    "materials" : [
        {
            "doubleSided" : true,
            "name" : "handMAT",
            "pbrMetallicRoughness" : {
                "baseColorTexture" : {
                    "index" : 0
                },
                "metallicFactor" : 0,
                "roughnessFactor" : 0.6732679605484009
            }
        }
    ],
    "meshes" : [
        {
            "name" : "severedArm",
            "primitives" : [
                {
                    "attributes" : {
                        "POSITION" : 0,
                        "NORMAL" : 1,
                        "TEXCOORD_0" : 2
                    },
                    "indices" : 3,
                    "material" : 0
                }
            ]
        }
    ],
    "textures" : [
        {
            "sampler" : 0,
            "source" : 0
        }
    ],
    "images" : [
        {
            "bufferView" : 4,
            "mimeType" : "image/jpeg",
            "name" : "hand Base Color"
        }
    ],
    "accessors" : [
        {
            "bufferView" : 0,
            "componentType" : 5126,
            "count" : 444,
            "max" : [
                0.07420919835567474,
                0.34919655323028564,
                0.04468903690576553
            ],
            "min" : [
                -0.05566934868693352,
                -0.0924222320318222,
                -0.1427467316389084
            ],
            "type" : "VEC3"
        },
        {
            "bufferView" : 1,
            "componentType" : 5126,
            "count" : 444,
            "type" : "VEC3"
        },
        {
            "bufferView" : 2,
            "componentType" : 5126,
            "count" : 444,
            "type" : "VEC2"
        },
        {
            "bufferView" : 3,
            "componentType" : 5123,
            "count" : 1152,
            "type" : "SCALAR"
        }
    ],
    "bufferViews" : [
        {
            "buffer" : 0,
            "byteLength" : 5328,
            "byteOffset" : 0
        },
        {
            "buffer" : 0,
            "byteLength" : 5328,
            "byteOffset" : 5328
        },
        {
            "buffer" : 0,
            "byteLength" : 3552,
            "byteOffset" : 10656
        },
        {
            "buffer" : 0,
            "byteLength" : 2304,
            "byteOffset" : 14208
        },
        {
            "buffer" : 0,
            "byteLength" : 82938,
            "byteOffset" : 16512
        }
    ],
    "samplers" : [
        {
            "magFilter" : 9729,
            "minFilter" : 9987
        }
    ],
    "buffers" : [
        {
            "byteLength" : 99452,
            "uri" : "data:application/octet-stream;base64,"
        }
    ]
}
