{
    "asset" : {
        "generator" : "Khronos glTF Blender I/O v1.7.33",
        "version" : "2.0"
    },
    "scene" : 0,
    "scenes" : [
        {
            "name" : "Scene",
            "nodes" : [
                0
            ]
        }
    ],
    "nodes" : [
        {
            "mesh" : 0,
            "name" : "sledgeHammer",
            "translation" : [
                0.20990395545959473,
                -0.004130346700549126,
                0.9969989061355591
            ]
        }
    ],
    "materials" : [
        {
            "doubleSided" : true,
            "name" : "hammerHEADMAT",
            "normalTexture" : {
                "index" : 0
            },
            "pbrMetallicRoughness" : {
                "baseColorTexture" : {
                    "index" : 1
                },
                "roughnessFactor" : 0.32499998807907104
            }
        },
        {
            "doubleSided" : true,
            "name" : "hammerHANDLEMAT",
            "normalTexture" : {
                "index" : 2
            },
            "pbrMetallicRoughness" : {
                "baseColorTexture" : {
                    "index" : 3
                },
                "metallicFactor" : 0.05833333358168602,
                "roughnessFactor" : 0.9166666269302368
            }
        }
    ],
    "meshes" : [
        {
            "name" : "sledgehammer",
            "primitives" : [
                {
                    "attributes" : {
                        "POSITION" : 0,
                        "NORMAL" : 1,
                        "TEXCOORD_0" : 2
                    },
                    "indices" : 3,
                    "material" : 0
                },
                {
                    "attributes" : {
                        "POSITION" : 4,
                        "NORMAL" : 5,
                        "TEXCOORD_0" : 6
                    },
                    "indices" : 7,
                    "material" : 1
                }
            ]
        }
    ],
    "textures" : [
        {
            "sampler" : 0,
            "source" : 0
        },
        {
            "sampler" : 0,
            "source" : 1
        },
        {
            "sampler" : 0,
            "source" : 0
        },
        {
            "sampler" : 0,
            "source" : 1
        }
    ],
    "images" : [
        {
            "bufferView" : 4,
            "mimeType" : "image/png",
            "name" : "hammerHEADMAT Normal"
        },
        {
            "bufferView" : 5,
            "mimeType" : "image/png",
            "name" : "hammerHANDLEMAT Base Color"
        }
    ],
    "accessors" : [
        {
            "bufferView" : 0,
            "componentType" : 5126,
            "count" : 209,
            "max" : [
                -0.34130915999412537,
                0.06596642732620239,
                0.19693639874458313
            ],
            "min" : [
                -0.46498119831085205,
                -0.05770563334226608,
                -0.19694223999977112
            ],
            "type" : "VEC3"
        },
        {
            "bufferView" : 1,
            "componentType" : 5126,
            "count" : 209,
            "type" : "VEC3"
        },
        {
            "bufferView" : 2,
            "componentType" : 5126,
            "count" : 209,
            "type" : "VEC2"
        },
        {
            "bufferView" : 3,
            "componentType" : 5123,
            "count" : 768,
            "type" : "SCALAR"
        },
        {
            "bufferView" : 6,
            "componentType" : 5126,
            "count" : 283,
            "max" : [
                0.5716446042060852,
                0.025604091584682465,
                0.036310162395238876
            ],
            "min" : [
                -0.34201714396476746,
                -0.028967207297682762,
                -0.03631646931171417
            ],
            "type" : "VEC3"
        },
        {
            "bufferView" : 7,
            "componentType" : 5126,
            "count" : 283,
            "type" : "VEC3"
        },
        {
            "bufferView" : 8,
            "componentType" : 5126,
            "count" : 283,
            "type" : "VEC2"
        },
        {
            "bufferView" : 9,
            "componentType" : 5123,
            "count" : 1458,
            "type" : "SCALAR"
        }
    ],
    "bufferViews" : [
        {
            "buffer" : 0,
            "byteLength" : 2508,
            "byteOffset" : 0
        },
        {
            "buffer" : 0,
            "byteLength" : 2508,
            "byteOffset" : 2508
        },
        {
            "buffer" : 0,
            "byteLength" : 1672,
            "byteOffset" : 5016
        },
        {
            "buffer" : 0,
            "byteLength" : 1536,
            "byteOffset" : 6688
        },
        {
            "buffer" : 0,
            "byteLength" : 1338339,
            "byteOffset" : 8224
        },
        {
            "buffer" : 0,
            "byteLength" : 141080,
            "byteOffset" : 1346564
        },
        {
            "buffer" : 0,
            "byteLength" : 3396,
            "byteOffset" : 1487644
        },
        {
            "buffer" : 0,
            "byteLength" : 3396,
            "byteOffset" : 1491040
        },
        {
            "buffer" : 0,
            "byteLength" : 2264,
            "byteOffset" : 1494436
        },
        {
            "buffer" : 0,
            "byteLength" : 2916,
            "byteOffset" : 1496700
        }
    ],
    "samplers" : [
        {
            "magFilter" : 9729,
            "minFilter" : 9987
        }
    ],
    "buffers" : [
        {
            "byteLength" : 1499616,
            "uri" : "data:application/octet-stream;base64,"
        }
    ]
}
