{
    "asset" : {
        "generator" : "Khronos glTF Blender I/O v1.7.33",
        "version" : "2.0"
    },
    "scene" : 0,
    "scenes" : [
        {
            "name" : "Scene",
            "nodes" : [
                4
            ]
        }
    ],
    "nodes" : [
        {
            "mesh" : 0,
            "name" : "dummy dressed.001",
            "translation" : [
                0,
                -0.3571557402610779,
                0
            ]
        },
        {
            "mesh" : 1,
            "name" : "high-polyMesh",
            "translation" : [
                0,
                -0.3571557402610779,
                0
            ]
        },
        {
            "mesh" : 2,
            "name" : "male_casualsuit04Mesh",
            "translation" : [
                0,
                -0.3571557402610779,
                0
            ]
        },
        {
            "mesh" : 3,
            "name" : "male_casualsuit04Mesh.001",
            "translation" : [
                0,
                -0.3571557402610779,
                0
            ]
        },
        {
            "children" : [
                0,
                1,
                2,
                3
            ],
            "name" : "dummy dressed",
            "rotation" : [
                0,
                0.2604449689388275,
                0,
                0.9654887914657593
            ],
            "translation" : [
                5.440030097961426,
                0.3571557402610779,
                -8.693995475769043
            ]
        }
    ],
    "materials" : [
        {
            "doubleSided" : true,
            "name" : "dummy skin",
            "pbrMetallicRoughness" : {
                "baseColorFactor" : [
                    0.7137640118598938,
                    0.5390453338623047,
                    0.42547500133514404,
                    1
                ],
                "roughnessFactor" : 0.9020203948020935
            }
        },
        {
            "doubleSided" : true,
            "name" : "dummy shirt",
            "pbrMetallicRoughness" : {
                "baseColorFactor" : [
                    0.800000011920929,
                    0.800000011920929,
                    0.800000011920929,
                    1
                ],
                "metallicFactor" : 0,
                "roughnessFactor" : 0.5
            }
        },
        {
            "doubleSided" : true,
            "name" : "dummy pants",
            "pbrMetallicRoughness" : {
                "baseColorFactor" : [
                    0.0053362310864031315,
                    0.00821705162525177,
                    0.1149357259273529,
                    1
                ],
                "metallicFactor" : 0,
                "roughnessFactor" : 0.5
            }
        }
    ],
    "meshes" : [
        {
            "name" : "123",
            "primitives" : [
                {
                    "attributes" : {
                        "POSITION" : 0,
                        "NORMAL" : 1,
                        "TEXCOORD_0" : 2
                    },
                    "indices" : 3,
                    "material" : 0
                }
            ]
        },
        {
            "name" : "high-poly",
            "primitives" : [
                {
                    "attributes" : {
                        "POSITION" : 4,
                        "NORMAL" : 5,
                        "TEXCOORD_0" : 6
                    },
                    "indices" : 7
                }
            ]
        },
        {
            "name" : "male_casualsuit04",
            "primitives" : [
                {
                    "attributes" : {
                        "POSITION" : 8,
                        "NORMAL" : 9,
                        "TEXCOORD_0" : 10
                    },
                    "indices" : 11,
                    "material" : 1
                }
            ]
        },
        {
            "name" : "male_casualsuit04.001",
            "primitives" : [
                {
                    "attributes" : {
                        "POSITION" : 12,
                        "NORMAL" : 13,
                        "TEXCOORD_0" : 14
                    },
                    "indices" : 15,
                    "material" : 2
                }
            ]
        }
    ],
    "accessors" : [
        {
            "bufferView" : 0,
            "componentType" : 5126,
            "count" : 11990,
            "max" : [
                0.34739962220191956,
                1.7558014392852783,
                0.130552738904953
            ],
            "min" : [
                -0.32087835669517517,
                -0.0019799110013991594,
                -0.15902681648731232
            ],
            "type" : "VEC3"
        },
        {
            "bufferView" : 1,
            "componentType" : 5126,
            "count" : 11990,
            "type" : "VEC3"
        },
        {
            "bufferView" : 2,
            "componentType" : 5126,
            "count" : 11990,
            "type" : "VEC2"
        },
        {
            "bufferView" : 3,
            "componentType" : 5123,
            "count" : 65352,
            "type" : "SCALAR"
        },
        {
            "bufferView" : 4,
            "componentType" : 5126,
            "count" : 1076,
            "max" : [
                0.045720215886831284,
                1.6601359844207764,
                0.07102416455745697
            ],
            "min" : [
                -0.04607753828167915,
                1.6286654472351074,
                0.04494066163897514
            ],
            "type" : "VEC3"
        },
        {
            "bufferView" : 5,
            "componentType" : 5126,
            "count" : 1076,
            "type" : "VEC3"
        },
        {
            "bufferView" : 6,
            "componentType" : 5126,
            "count" : 1076,
            "type" : "VEC2"
        },
        {
            "bufferView" : 7,
            "componentType" : 5123,
            "count" : 6120,
            "type" : "SCALAR"
        },
        {
            "bufferView" : 8,
            "componentType" : 5126,
            "count" : 902,
            "max" : [
                0.2548816204071045,
                1.5096945762634277,
                0.08715575933456421
            ],
            "min" : [
                -0.25295400619506836,
                0.9381341934204102,
                -0.1853409707546234
            ],
            "type" : "VEC3"
        },
        {
            "bufferView" : 9,
            "componentType" : 5126,
            "count" : 902,
            "type" : "VEC3"
        },
        {
            "bufferView" : 10,
            "componentType" : 5126,
            "count" : 902,
            "type" : "VEC2"
        },
        {
            "bufferView" : 11,
            "componentType" : 5123,
            "count" : 4584,
            "type" : "SCALAR"
        },
        {
            "bufferView" : 12,
            "componentType" : 5126,
            "count" : 950,
            "max" : [
                0.256206214427948,
                1.0177191495895386,
                0.06476957350969315
            ],
            "min" : [
                -0.24799098074436188,
                0.058039452880620956,
                -0.18572750687599182
            ],
            "type" : "VEC3"
        },
        {
            "bufferView" : 13,
            "componentType" : 5126,
            "count" : 950,
            "type" : "VEC3"
        },
        {
            "bufferView" : 14,
            "componentType" : 5126,
            "count" : 950,
            "type" : "VEC2"
        },
        {
            "bufferView" : 15,
            "componentType" : 5123,
            "count" : 5136,
            "type" : "SCALAR"
        }
    ],
    "bufferViews" : [
        {
            "buffer" : 0,
            "byteLength" : 143880,
            "byteOffset" : 0
        },
        {
            "buffer" : 0,
            "byteLength" : 143880,
            "byteOffset" : 143880
        },
        {
            "buffer" : 0,
            "byteLength" : 95920,
            "byteOffset" : 287760
        },
        {
            "buffer" : 0,
            "byteLength" : 130704,
            "byteOffset" : 383680
        },
        {
            "buffer" : 0,
            "byteLength" : 12912,
            "byteOffset" : 514384
        },
        {
            "buffer" : 0,
            "byteLength" : 12912,
            "byteOffset" : 527296
        },
        {
            "buffer" : 0,
            "byteLength" : 8608,
            "byteOffset" : 540208
        },
        {
            "buffer" : 0,
            "byteLength" : 12240,
            "byteOffset" : 548816
        },
        {
            "buffer" : 0,
            "byteLength" : 10824,
            "byteOffset" : 561056
        },
        {
            "buffer" : 0,
            "byteLength" : 10824,
            "byteOffset" : 571880
        },
        {
            "buffer" : 0,
            "byteLength" : 7216,
            "byteOffset" : 582704
        },
        {
            "buffer" : 0,
            "byteLength" : 9168,
            "byteOffset" : 589920
        },
        {
            "buffer" : 0,
            "byteLength" : 11400,
            "byteOffset" : 599088
        },
        {
            "buffer" : 0,
            "byteLength" : 11400,
            "byteOffset" : 610488
        },
        {
            "buffer" : 0,
            "byteLength" : 7600,
            "byteOffset" : 621888
        },
        {
            "buffer" : 0,
            "byteLength" : 10272,
            "byteOffset" : 629488
        }
    ],
    "buffers" : [
        {
            "byteLength" : 639760,
            "uri" : "data:application/octet-stream;base64,"
        }
    ]
}
